<svg width="38" height="34" viewBox="0 0 38 34" fill="none" xmlns="http://www.w3.org/2000/svg" xmlns:xlink="http://www.w3.org/1999/xlink">
<path d="M34.039,1.763L32.567,0.291C32.151,-0.125 31.383,-0.061 30.903,0.515L25.783,5.603C23.479,4.611 20.951,4.131 18.295,4.131C10.39,4.163 3.543,8.77 0.247,15.395C0.055,15.811 0.055,16.323 0.247,16.675C1.782,19.811 4.087,22.403 6.967,24.355L2.775,28.611C2.295,29.091 2.231,29.859 2.551,30.275L4.023,31.746C4.439,32.162 5.207,32.098 5.687,31.523L33.782,3.427C34.39,2.947 34.454,2.179 34.038,1.763L34.039,1.763ZM19.991,11.426C19.447,11.298 18.871,11.138 18.327,11.138C15.607,11.138 13.431,13.314 13.431,16.034C13.431,16.578 13.559,17.154 13.719,17.698L11.574,19.81C10.935,18.69 10.583,17.442 10.583,16.034C10.583,11.778 14.007,8.354 18.263,8.354C19.671,8.354 20.919,8.706 22.039,9.346L19.991,11.426Z" fill="#666666" fill-opacity="0.8"/>
<path d="M36.343,15.395C35.223,13.155 33.751,11.139 31.927,9.507L25.975,15.395L25.975,16.035C25.975,20.291 22.551,23.715 18.295,23.715L17.655,23.715L13.879,27.491C15.287,27.779 16.759,27.971 18.199,27.971C26.103,27.971 32.951,23.363 36.247,16.706C36.535,16.258 36.535,15.81 36.343,15.394L36.343,15.395Z" fill="#666666" fill-opacity="0.8"/>
</svg>
