<svg width="48" height="50" viewBox="0 0 48 50" fill="none" xmlns="http://www.w3.org/2000/svg" xmlns:xlink="http://www.w3.org/1999/xlink">
<path d="M45.002,25.466C45.002,23.74 44.859,22.48 44.55,21.173L24.431,21.173L24.431,28.966L36.24,28.966C36.002,30.903 34.716,33.82 31.859,35.78L31.819,36.041L38.18,40.87L38.621,40.913C42.669,37.25 45.002,31.86 45.002,25.466Z" fill="#4285F4"/>
<path d="M24.428,46C30.214,46 35.071,44.133 38.618,40.913L31.857,35.78C30.047,37.016 27.618,37.88 24.428,37.88C18.761,37.88 13.952,34.217 12.237,29.153L11.986,29.174L5.372,34.191L5.285,34.426C8.809,41.287 16.047,46 24.428,46Z" fill="#34A853"/>
<path d="M12.241,29.153C11.789,27.847 11.527,26.447 11.527,25C11.527,23.553 11.789,22.153 12.217,20.847L12.205,20.568L5.508,15.471L5.289,15.573C3.836,18.42 3.003,21.617 3.003,25C3.003,28.383 3.836,31.58 5.289,34.427L12.241,29.153Z" fill="#FBBC05"/>
<path d="M24.428,12.12C28.452,12.12 31.166,13.823 32.714,15.247L38.761,9.46C35.047,6.077 30.214,4 24.428,4C16.047,4 8.809,8.713 5.285,15.573L12.214,20.847C13.952,15.783 18.761,12.12 24.428,12.12Z" fill="#EB4335"/>
</svg>
