<svg width="56" height="48" viewBox="0 0 56 48" fill="none" xmlns="http://www.w3.org/2000/svg" xmlns:xlink="http://www.w3.org/1999/xlink">
<path d="M17.577,47C11.107,47 5.076,45.118 0,41.871C4.31,42.15 11.916,41.482 16.647,36.97C9.53,36.643 6.321,31.185 5.902,28.852C6.507,29.085 9.391,29.365 11.019,28.712C2.832,26.659 1.576,19.475 1.855,17.282C3.39,18.355 5.995,18.728 7.018,18.635C-0.61,13.176 2.134,4.966 3.483,3.193C8.958,10.777 17.162,15.037 27.313,15.274C27.121,14.435 27.02,13.561 27.02,12.663C27.02,6.222 32.227,1 38.649,1C42.005,1 45.029,2.426 47.151,4.706C49.394,4.18 52.769,2.95 54.418,1.886C53.587,4.872 50.998,7.363 49.432,8.286C49.445,8.318 49.419,8.255 49.432,8.286C50.807,8.078 54.53,7.363 56,6.365C55.273,8.042 52.528,10.831 50.275,12.393C50.695,30.876 36.553,47 17.577,47Z" fill="#47ACDF"/>
</svg>
